<?xml version="1.0" standalone="no"?>
<!DOCTYPE svg PUBLIC "-//W3C//DTD SVG 20010904//EN"
 "http://www.w3.org/TR/2001/REC-SVG-20010904/DTD/svg10.dtd">
<svg version="1.0" xmlns="http://www.w3.org/2000/svg"
 width="1200.000000pt" height="1200.000000pt" viewBox="0 0 1200.000000 1200.000000"
 preserveAspectRatio="xMidYMid meet">

<g transform="translate(0.000000,1200.000000) scale(0.100000,-0.100000)"
fill="#000000" stroke="none">
<path d="M5800 7649 c-150 -19 -324 -70 -445 -131 -395 -199 -539 -564 -344
-874 22 -35 73 -94 113 -131 449 -419 1380 -400 1787 35 125 134 183 299 161
457 -54 375 -529 660 -1092 654 -63 -1 -144 -5 -180 -10z m440 -54 c531 -81
880 -442 770 -797 -47 -153 -191 -303 -385 -401 -476 -239 -1159 -165 -1477
160 -31 32 -65 69 -76 83 -90 122 -125 289 -86 421 75 256 390 473 774 534
116 18 363 18 480 0z"/>
<path d="M5407 7323 c-51 -50 137 -261 329 -369 46 -25 84 -51 87 -57 5 -14
-48 -89 -57 -80 -3 3 -16 -2 -28 -13 -15 -12 -18 -13 -10 -3 7 9 9 24 6 34 -7
17 -8 17 -22 -1 -13 -18 -14 -18 -7 3 9 32 -4 48 -21 26 -7 -10 -14 -13 -14
-7 0 6 7 17 15 24 14 12 14 15 0 36 -8 13 -15 30 -15 39 0 20 -16 19 -30 -2
-9 -16 -10 -15 -5 4 4 14 0 32 -9 45 -9 12 -16 19 -16 15 0 -4 -10 3 -22 15
l-21 21 -9 -22 c-4 -13 -4 -30 2 -41 9 -17 7 -18 -20 -10 -17 5 -30 6 -30 4 0
-3 11 -24 23 -47 13 -23 22 -48 19 -55 -2 -8 4 -29 14 -48 14 -26 25 -34 49
-35 l30 -2 -33 -6 -34 -6 27 -24 c23 -19 35 -22 66 -17 34 5 39 4 39 -13 0
-26 26 -51 53 -51 11 0 30 -9 42 -20 13 -12 29 -18 38 -14 24 9 21 23 -8 34
-14 5 -25 16 -25 25 0 8 1 15 3 15 1 0 16 4 34 9 31 9 32 9 22 -16 -7 -20 -5
-33 13 -62 61 -98 127 -142 184 -121 35 14 100 75 121 113 8 16 17 27 20 24 2
-3 -1 -15 -7 -27 -11 -21 -10 -22 13 -16 20 5 27 2 32 -13 3 -10 2 -26 -1 -36
-6 -14 -3 -16 14 -11 11 4 23 2 27 -4 13 -22 23 -8 35 53 7 34 19 69 26 78 8
8 14 29 14 46 0 24 11 39 52 74 29 24 58 44 65 44 12 0 76 85 69 92 -8 9 -114
-49 -110 -60 2 -7 -14 -30 -36 -52 -22 -21 -40 -35 -40 -30 1 21 86 142 96
138 11 -4 41 93 33 102 -2 2 -24 -14 -49 -36 -32 -28 -41 -41 -33 -47 10 -6
10 -12 -2 -28 -13 -18 -14 -17 -14 16 0 30 7 41 51 75 103 81 229 251 214 290
-8 22 -21 20 -188 -30 -84 -25 -162 -45 -176 -45 -55 0 -98 -57 -89 -116 5
-31 3 -34 -26 -42 l-32 -8 -6 60 c-3 34 -11 71 -17 83 -7 12 -12 31 -12 43 0
32 -44 70 -81 70 -45 0 -140 -96 -99 -101 6 -1 16 -2 23 -3 16 -2 11 -43 -13
-88 -11 -21 -17 -44 -14 -53 7 -18 -2 -19 -43 -4 -29 9 -30 12 -20 38 21 56
-31 121 -96 121 -13 0 -91 20 -173 45 -151 45 -175 50 -187 38z m197 -78 c84
-25 161 -45 171 -45 25 0 55 -29 55 -53 0 -11 -11 -30 -25 -43 -29 -27 -31
-37 -10 -58 16 -16 21 -86 6 -86 -26 0 -197 129 -257 194 -65 69 -113 136 -99
136 4 0 76 -20 159 -45z m456 25 c28 -58 52 -157 45 -181 -5 -15 -10 -16 -33
-8 -15 6 -43 8 -63 5 -37 -6 -58 10 -39 30 4 5 15 33 25 63 16 50 16 55 2 66
-15 11 -15 13 1 29 20 20 52 18 62 -4z m543 -12 c-29 -53 -213 -231 -279 -271
-34 -20 -64 -37 -66 -37 -5 0 5 59 18 113 5 22 2 31 -15 43 -41 29 -15 94 38
94 14 0 91 20 171 45 80 24 146 44 148 44 2 1 -5 -14 -15 -31z m-496 -221 c21
-1 55 2 76 6 35 8 37 7 37 -18 l0 -25 -185 0 -185 0 0 25 c0 23 3 25 28 18 36
-10 117 -7 139 5 11 7 24 7 35 1 10 -5 34 -10 55 -12z m242 -103 c-15 -24 -18
-38 -11 -43 8 -5 8 -18 -1 -49 -18 -60 -31 -70 -46 -33 -7 16 -21 37 -32 47
-29 26 -23 41 24 62 23 11 51 27 62 36 29 22 29 20 4 -20z m-470 -16 l-1 -43
-13 30 c-18 39 -18 55 0 55 11 0 15 -11 14 -42z m69 -53 c3 -78 1 -87 -13 -75
-20 16 -22 174 -2 168 8 -3 13 -33 15 -93z m70 -23 c3 -109 -1 -125 -26 -100
-13 13 -17 199 -5 212 20 20 28 -9 31 -112z m62 9 c0 -88 -3 -110 -15 -115
-13 -5 -15 11 -15 103 0 59 3 111 7 114 18 19 23 -2 23 -102z m70 30 c0 -58
-4 -82 -15 -91 -13 -11 -15 -1 -15 79 0 74 3 91 15 91 12 0 15 -15 15 -79z
m60 52 c0 -16 -5 -35 -10 -43 -7 -11 -10 -4 -10 28 0 23 5 42 10 42 6 0 10
-12 10 -27z m-545 -22 c-3 -6 -11 -11 -17 -11 -6 0 -6 6 2 15 14 17 26 13 15
-4z m-58 -37 c-3 -3 -12 -4 -19 -1 -8 3 -5 6 6 6 11 1 17 -2 13 -5z m16 -41
c-7 -2 -19 -2 -25 0 -7 3 -2 5 12 5 14 0 19 -2 13 -5z m257 -45 c0 -3 -17 -12
-37 -19 -21 -6 -44 -17 -52 -23 -17 -14 13 50 37 77 15 17 17 17 34 -5 10 -13
18 -26 18 -30z m375 0 l29 -52 -29 22 c-15 12 -36 22 -46 22 -11 0 -19 5 -19
10 0 13 23 50 31 50 3 0 19 -23 34 -52z m-592 -25 c-7 -2 -19 -2 -25 0 -7 3
-2 5 12 5 14 0 19 -2 13 -5z m491 -101 c-25 -44 -97 -102 -126 -102 -25 0 -81
58 -108 110 -17 33 -18 40 -5 50 12 10 25 7 69 -16 l54 -28 49 31 c47 30 48
30 68 11 20 -19 20 -19 -1 -56z m82 67 c3 -6 0 -17 -8 -25 -13 -13 -16 -11
-26 11 -10 22 -9 25 8 25 10 0 22 -5 26 -11z"/>
<path d="M5324 7048 c24 -59 67 -214 63 -229 -4 -16 1 -19 29 -19 24 0 32 4
28 13 -3 8 12 66 33 130 l39 117 -31 0 c-30 0 -31 -1 -48 -81 -10 -44 -20 -79
-22 -77 -9 8 -33 133 -28 145 4 9 -5 13 -32 13 -25 0 -35 -4 -31 -12z"/>
<path d="M6615 6930 l0 -130 44 0 c37 0 42 2 31 15 -8 10 -11 50 -8 130 l3
115 -35 0 -35 0 0 -130z"/>
<path d="M7400 5975 l0 -95 1425 0 1425 0 0 95 0 95 -1425 0 -1425 0 0 -95z"/>
<path d="M1750 5955 l0 -95 1425 0 1425 0 0 95 0 95 -1425 0 -1425 0 0 -95z"/>
<path d="M5403 5373 c-49 -5 -56 -18 -43 -76 9 -36 60 -384 120 -811 21 -153
26 -160 110 -151 122 13 117 11 129 63 6 26 17 112 26 192 9 80 21 159 27 175
6 17 14 64 19 105 5 41 18 134 28 205 11 72 23 165 26 207 6 75 6 77 -17 82
-105 21 -121 13 -123 -65 0 -30 -3 -58 -7 -64 -3 -5 -9 -57 -12 -115 -4 -58
-11 -125 -16 -150 -5 -25 -16 -103 -25 -175 -19 -156 -36 -258 -42 -252 -2 3
-6 33 -8 68 -4 56 -37 303 -80 599 -8 52 -14 105 -15 117 0 24 -25 54 -43 51
-7 -1 -31 -3 -54 -5z"/>
<path d="M5953 5370 l-21 -9 -1 -510 c-1 -479 0 -510 16 -515 23 -7 111 -2
119 7 12 12 18 1005 6 1020 -13 16 -87 20 -119 7z"/>
<path d="M6196 5354 c-8 -21 -7 -970 1 -1002 5 -21 10 -23 72 -20 l66 3 0 213
c0 135 4 212 10 212 6 0 44 -96 85 -213 l75 -212 60 -3 c38 -2 67 2 78 10 21
16 21 18 -79 269 l-66 166 49 49 c30 30 53 65 61 90 13 46 18 263 6 309 -13
51 -45 95 -89 120 -39 23 -51 25 -182 25 -122 0 -142 -2 -147 -16z m266 -164
c23 -46 26 -234 4 -256 -20 -19 -61 -34 -95 -34 -38 0 -41 13 -41 188 l0 143
58 -3 c54 -3 58 -5 74 -38z"/>
</g>
</svg>
