<svg version="1.1" id="Layer_1" xmlns="http://www.w3.org/2000/svg" xmlns:xlink="http://www.w3.org/1999/xlink" x="0px" y="0px"
	 width="100%" viewBox="0 0 1024 1024" enable-background="new 0 0 1024 1024" xml:space="preserve">
<path fill="#000000" opacity="1.000000" stroke="none" 
	d="
M158.051361,508.670471 
	C234.856613,508.671509 311.169983,508.672180 387.483337,508.675629 
	C394.499542,508.675964 394.515106,508.684418 394.387054,515.714966 
	C394.195740,526.220825 396.432220,526.044067 383.751099,526.044617 
	C308.270874,526.047668 232.790619,526.077820 157.310379,526.093567 
	C149.640091,526.095154 149.640045,526.078918 149.595825,518.420837 
	C149.592941,517.920959 149.590378,517.421143 149.588974,516.921265 
	C149.565933,508.705292 149.565979,508.705292 158.051361,508.670471 
z"/>
<path fill="#000000" opacity="1.000000" stroke="none" 
	d="
M876.313110,511.148987 
	C876.318665,524.237488 876.318665,524.226318 863.568298,524.223206 
	C788.942871,524.204956 714.317444,524.194153 639.692017,524.175415 
	C631.778198,524.173401 631.768738,524.156982 631.791199,516.139038 
	C631.820129,505.835632 630.917480,506.699097 641.180542,506.697906 
	C717.305176,506.689087 793.429749,506.675049 869.554321,506.731384 
	C872.366028,506.733459 876.455872,505.275879 876.313110,511.148987 
z"/>
<path fill="#000000" opacity="1.000000" stroke="none" 
	d="
M565.746338,577.681946 
	C567.853455,586.137756 567.433838,594.244446 566.249634,602.360779 
	C565.542725,607.205688 563.151123,611.168762 559.443420,614.217651 
	C556.954956,616.263916 556.734924,618.227051 557.931885,621.136841 
	C561.538635,629.904968 564.953857,638.756897 568.200256,647.664795 
	C569.054321,650.008362 571.516296,653.062744 567.464478,654.951233 
	C562.249268,657.381836 556.018677,655.986816 554.452942,651.893860 
	C551.421509,643.969727 548.701782,635.926270 545.854187,627.931885 
	C544.981812,625.482544 544.113708,623.031738 542.914551,620.648010 
	C541.764343,630.096313 542.874207,639.470154 543.015686,648.846313 
	C543.106750,654.878235 542.274658,655.805115 536.295715,655.950073 
	C529.963196,656.103699 528.899292,655.183716 528.872314,648.983032 
	C528.761536,623.536316 528.685913,598.089478 528.641602,572.642578 
	C528.630920,566.506958 529.447021,565.748474 535.549683,565.689636 
	C540.045166,565.646362 544.542969,565.562561 549.036499,565.654785 
	C558.011597,565.838867 562.307556,568.906921 565.746338,577.681946 
M550.234131,580.076233 
	C543.350891,577.965454 542.148499,578.784790 542.186462,585.504028 
	C542.213623,590.306335 542.080078,595.113647 542.264709,599.909180 
	C542.349792,602.117798 541.139709,605.410522 545.117920,605.599060 
	C548.403137,605.754761 552.261780,605.017578 552.626892,601.396606 
	C553.326904,594.455322 554.614380,587.247620 550.234131,580.076233 
z"/>
<path fill="#000000" opacity="1.000000" stroke="none" 
	d="
M494.127808,371.786377 
	C512.227417,370.524597 529.859436,370.104462 547.113159,374.968811 
	C567.277161,380.653595 585.284119,389.853058 597.481262,407.755463 
	C609.685791,425.668640 607.194397,449.918274 592.256714,465.672211 
	C577.022095,481.739258 557.953979,490.057648 536.671997,493.699402 
	C505.094269,499.102966 474.984680,495.086945 447.583771,477.479584 
	C436.136871,470.124023 427.030487,460.390808 422.893768,447.081268 
	C416.654663,427.007599 423.332977,410.404358 437.970459,396.577484 
	C451.956451,383.365967 469.182404,376.578827 487.802704,372.927338 
	C489.759888,372.543518 491.723206,372.190704 494.127808,371.786377 
M518.365662,376.163788 
	C510.360291,375.845398 502.380463,376.172791 494.455780,377.348907 
	C473.060852,380.524048 453.536652,387.787811 438.099884,403.681671 
	C425.292480,416.868317 422.043060,436.291687 429.864868,451.059509 
	C436.439514,463.472626 446.556366,472.072021 458.872131,478.267212 
	C483.110504,490.459930 508.774902,493.040955 535.221252,488.665649 
	C556.063049,485.217560 574.910828,477.344666 589.303284,461.141510 
	C596.988281,452.489685 601.498901,442.321777 600.329712,430.569214 
	C598.876038,415.955994 591.107788,404.857056 579.530579,396.170959 
	C561.682678,382.780151 541.204956,377.389191 518.365662,376.163788 
z"/>
<path fill="#000000" opacity="1.000000" stroke="none" 
	d="
M495.213623,565.667786 
	C500.099976,565.954529 501.126099,567.951782 500.717743,572.587646 
	C499.533905,586.026367 497.398560,599.334167 495.183990,612.587463 
	C493.243225,624.201965 492.095978,635.910950 490.086792,647.499878 
	C488.974487,653.915649 487.708710,654.985352 481.272461,655.206909 
	C469.715820,655.604736 469.730835,655.602539 468.027832,644.014526 
	C464.471283,619.814453 460.913483,595.614502 457.309998,571.421448 
	C456.858002,568.386658 457.175171,566.218384 460.875885,565.676086 
	C468.002625,564.631836 470.019775,565.218323 470.755890,569.723328 
	C472.365479,579.573914 473.774536,589.458740 475.147003,599.346069 
	C476.605316,609.851868 477.926636,620.376648 479.909149,630.925110 
	C481.108582,621.881409 482.422729,612.851013 483.477844,603.790527 
	C484.742249,592.932739 485.835388,582.054077 486.902527,571.174683 
	C487.398041,566.123352 490.210602,564.692749 495.213623,565.667786 
z"/>
<path fill="#000000" opacity="1.000000" stroke="none" 
	d="
M506.030090,572.303894 
	C506.752991,565.952026 512.578674,562.895264 517.978760,565.533936 
	C519.962585,566.503296 520.242371,568.209961 520.333557,570.108948 
	C521.618408,596.878479 519.873535,623.640564 520.139587,650.407593 
	C520.197205,656.208923 515.872742,655.126282 512.319397,655.356506 
	C508.692596,655.591675 505.821381,654.842102 505.947601,650.464172 
	C506.354462,636.355042 505.581635,622.242126 506.336456,608.128296 
	C506.966583,596.345520 506.681915,584.542175 506.030090,572.303894 
z"/>
<path fill="#000000" opacity="1.000000" stroke="none" 
	d="
M525.941345,416.074097 
	C526.254395,417.710480 526.027954,419.441437 527.904541,419.442078 
	C529.813477,419.442719 529.554382,417.789307 529.697998,416.482880 
	C530.463257,409.521820 532.311951,407.422394 538.986572,406.267487 
	C547.222290,404.842468 554.994568,401.750336 563.064758,399.742249 
	C564.938843,399.275879 567.095947,398.050995 568.602539,400.111816 
	C570.025574,402.058289 569.429932,404.317474 568.260620,406.239777 
	C566.879578,408.510162 565.374084,410.719940 563.755432,412.827698 
	C559.690552,418.120880 554.063354,422.492126 554.131592,430.128174 
	C554.147461,431.909546 552.692749,432.971558 550.077148,434.257202 
	C553.917419,434.151764 556.166992,431.912476 560.078064,432.439758 
	C557.215332,435.721344 557.323975,439.613007 552.399536,441.351074 
	C548.667175,442.668335 545.061584,446.002197 544.095276,451.113892 
	C543.125000,456.246429 541.068726,461.173676 539.480225,466.216827 
	C537.413269,466.578064 535.966797,464.573914 534.285217,465.566559 
	C532.910522,463.789276 534.613770,460.874634 531.570923,460.438538 
	C529.628479,460.160156 528.138733,460.804047 526.634888,462.158356 
	C515.845154,471.875153 511.175934,471.145935 503.311951,458.688965 
	C502.874908,457.996704 502.423096,457.313782 501.704468,456.203735 
	C500.135529,459.254883 498.639038,458.629456 496.127228,457.212646 
	C492.786102,455.328033 488.954865,454.700317 486.746307,450.782532 
	C485.997620,449.454498 482.776764,451.377228 480.675720,449.971313 
	C476.743011,447.339752 475.510193,442.962646 474.149780,439.086639 
	C473.134064,436.192871 472.171692,433.178802 471.091370,430.301819 
	C474.144135,427.333710 474.144135,427.333710 475.525330,421.819763 
	C470.840424,417.903320 466.882721,413.209229 463.352081,408.135345 
	C461.635803,405.668854 460.476135,402.909332 462.255127,400.258484 
	C464.055176,397.576233 466.802948,399.169067 469.126404,399.806000 
	C477.624908,402.135803 485.927002,405.130249 494.654694,406.693970 
	C500.109650,407.671326 502.536407,411.100922 502.072235,416.738373 
	C501.874329,419.142395 502.282104,420.226044 505.149994,420.149445 
	C506.505554,417.179077 507.929688,414.058533 509.309448,411.035126 
	C504.981201,406.345184 505.181152,405.170471 510.850677,400.668030 
	C514.634399,397.663147 519.096375,398.232208 521.413025,402.525146 
	C523.615173,406.605804 524.805969,411.156769 525.941345,416.074097 
M478.833191,418.651031 
	C483.947754,422.977020 489.060852,427.305420 495.370178,429.631439 
	C496.903534,427.531860 496.058136,426.238037 495.375061,424.907928 
	C494.134125,422.491577 494.133209,420.368744 496.057007,418.070801 
	C498.864014,414.717896 497.699860,411.935608 493.175720,411.295715 
	C488.698853,410.662506 484.523560,409.042206 480.179871,408.005737 
	C476.098511,407.031891 472.292969,404.833862 467.230927,404.866333 
	C470.267090,410.413055 474.404419,414.203369 478.833191,418.651031 
M562.034485,404.979187 
	C553.745544,406.745209 545.988220,410.460693 537.461792,411.470123 
	C534.874817,411.776398 532.979675,414.609924 534.864563,416.664764 
	C538.018250,420.102783 537.681091,422.921600 535.537292,426.449951 
	C534.994934,427.342621 534.822571,429.057770 536.405823,430.181793 
	C537.068237,429.953247 537.916748,429.825256 538.581909,429.406189 
	C547.680603,423.673523 555.707275,416.757080 561.902832,407.886688 
	C562.445374,407.109924 563.961914,406.309357 562.034485,404.979187 
M524.511108,458.002075 
	C524.792419,457.592224 525.113098,457.203613 525.347778,456.768616 
	C526.120178,455.336548 527.368042,453.860107 525.870056,452.261902 
	C524.207703,450.488373 522.804016,452.051453 521.546997,452.960876 
	C517.467896,455.912079 513.601196,455.602203 509.728790,452.569611 
	C508.710205,451.771881 507.497925,450.894562 506.236420,452.305206 
	C505.470551,453.161560 505.663910,454.032959 506.048035,455.053589 
	C509.914154,465.326324 516.998413,466.723328 524.511108,458.002075 
M520.463318,412.341339 
	C519.622559,410.173584 518.786682,408.003876 517.939270,405.838715 
	C517.428101,404.532684 516.713501,403.284790 515.085266,403.628937 
	C513.430359,403.978668 513.134949,405.251190 513.663391,406.733551 
	C514.720032,409.697418 513.265686,412.229797 512.335022,414.869324 
	C511.816193,416.340973 510.441467,417.708557 511.698212,419.728699 
	C514.469177,418.782593 517.409607,419.453125 520.159424,419.230499 
	C521.456848,417.070892 520.843140,415.087280 520.463318,412.341339 
M490.938141,432.825867 
	C489.347931,432.356598 488.184937,430.368286 486.186584,431.227020 
	C485.435638,433.474274 487.203369,434.811615 487.544312,436.564911 
	C488.030914,439.067200 489.704803,441.612213 492.118958,441.907837 
	C495.141479,442.277985 496.258789,439.294373 497.441223,437.026886 
	C496.010101,434.575989 493.531342,434.242554 490.938141,432.825867 
M525.129639,426.761444 
	C526.834290,426.395538 529.033752,427.612854 530.488953,425.151245 
	C520.679810,425.287964 511.247772,424.680450 501.805267,426.763977 
	C509.277618,426.763977 516.749939,426.763977 525.129639,426.761444 
M541.493958,439.250641 
	C541.184448,437.453735 540.875000,435.656830 540.496094,433.456604 
	C538.326965,435.087097 535.820312,435.254944 534.326111,437.485138 
	C535.836914,439.841064 536.974243,442.334167 539.259277,444.024414 
	C540.826294,442.863373 540.714722,441.215088 541.493958,439.250641 
M519.736755,438.735840 
	C519.447510,437.022247 520.361816,435.041473 518.520630,432.820984 
	C518.520630,438.505615 518.520630,443.350464 518.520630,448.195312 
	C518.925842,448.212830 519.331055,448.230347 519.736267,448.247894 
	C519.736267,445.373199 519.736267,442.498535 519.736755,438.735840 
M512.759277,433.561768 
	C511.827789,438.196167 512.169556,442.810852 512.972900,447.427429 
	C513.943115,442.838226 514.055847,438.235138 512.759277,433.561768 
M506.347168,440.578522 
	C506.556763,441.447723 506.040771,442.601715 507.597717,443.185730 
	C507.621857,439.865387 508.140869,436.665985 506.336334,433.576141 
	C506.336334,435.665100 506.336334,437.754059 506.347168,440.578522 
M525.500916,441.912689 
	C525.500916,439.111816 525.500916,436.310944 525.500916,433.510040 
	C524.621216,436.568573 522.861206,439.677460 525.500916,441.912689 
z"/>
<path fill="#000000" opacity="1.000000" stroke="none" 
	d="
M466.505035,440.308960 
	C466.320496,442.149689 466.237427,443.622833 466.156860,445.051361 
	C464.183319,446.487579 462.361450,446.245300 460.454376,445.093842 
	C460.445740,437.387360 456.277313,430.668030 454.960602,423.026093 
	C458.520447,421.615723 460.950623,421.465729 461.341187,426.067474 
	C461.518280,428.153961 462.214386,430.196381 463.607208,432.348114 
	C464.249115,429.901184 465.193939,427.485931 465.453979,424.999054 
	C465.758850,422.083954 467.475525,421.798004 469.604156,422.218719 
	C472.131714,422.718323 471.343292,424.566620 470.858398,426.155518 
	C469.454712,430.754974 468.025635,435.346649 466.505035,440.308960 
z"/>
<path fill="#000000" opacity="1.000000" stroke="none" 
	d="
M570.609497,422.446228 
	C573.028687,427.368835 571.562134,432.322601 571.751404,437.172577 
	C571.853210,439.782501 571.355103,442.402069 572.777100,444.781219 
	C566.585938,447.467072 564.883850,446.372162 565.027588,440.260406 
	C565.128845,435.953430 565.285645,431.622009 564.951477,427.337891 
	C564.627014,423.177887 565.901123,421.313599 570.609497,422.446228 
z"/>
</svg>