<?xml version="1.0" standalone="no"?>
<!DOCTYPE svg PUBLIC "-//W3C//DTD SVG 20010904//EN"
 "http://www.w3.org/TR/2001/REC-SVG-20010904/DTD/svg10.dtd">
<svg version="1.0" xmlns="http://www.w3.org/2000/svg"
 width="2560.000000pt" height="2560.000000pt" viewBox="0 0 2560.000000 2560.000000"
 preserveAspectRatio="xMidYMid meet">

<g transform="translate(0.000000,2560.000000) scale(0.100000,-0.100000)"
fill="#000000" stroke="none">
<path d="M12485 18300 c-3 -5 -34 -10 -68 -10 -64 0 -284 -22 -397 -40 -142
-23 -239 -40 -350 -62 -68 -13 -326 -76 -360 -87 -14 -5 -45 -14 -70 -21 -88
-25 -318 -102 -385 -130 -11 -4 -47 -18 -80 -31 -100 -38 -232 -97 -400 -179
-138 -68 -201 -102 -392 -211 -110 -63 -464 -305 -539 -368 -16 -14 -45 -37
-64 -51 -93 -69 -332 -282 -471 -421 -139 -139 -351 -376 -419 -469 -14 -19
-37 -48 -51 -64 -63 -75 -305 -428 -368 -539 -10 -18 -36 -61 -56 -97 -94
-161 -252 -487 -322 -665 -19 -49 -39 -99 -43 -110 -27 -65 -105 -297 -130
-385 -7 -25 -16 -56 -21 -70 -19 -59 -87 -348 -109 -470 -42 -228 -80 -527
-80 -635 0 -34 -5 -66 -10 -71 -11 -11 -7 -586 4 -699 27 -257 38 -349 46
-410 18 -118 42 -256 62 -345 5 -25 13 -63 18 -85 12 -54 60 -244 70 -275 4
-14 13 -43 19 -65 37 -134 118 -365 191 -545 57 -142 236 -506 305 -620 30
-51 55 -94 55 -96 0 -6 167 -261 235 -359 235 -339 590 -728 920 -1010 39 -33
72 -62 75 -65 3 -3 39 -31 80 -62 42 -32 84 -66 95 -76 35 -32 366 -260 440
-302 17 -10 66 -39 110 -65 90 -54 225 -128 330 -179 89 -44 266 -126 271
-126 2 0 26 -9 52 -21 83 -37 296 -118 367 -140 22 -6 49 -15 60 -19 88 -34
365 -108 560 -150 123 -26 405 -71 575 -91 138 -16 1011 -17 1130 -1 348 47
456 64 578 92 23 6 62 15 87 20 88 20 141 33 245 62 58 17 119 33 135 38 30 7
267 89 380 130 33 13 64 26 70 31 5 5 15 9 22 9 7 0 42 14 78 30 36 17 68 30
70 30 9 0 349 168 410 203 33 19 83 47 110 62 90 50 324 199 398 253 241 175
319 236 497 390 103 88 438 427 531 537 269 316 477 618 671 970 42 78 198
392 198 400 0 3 10 27 21 53 44 97 51 115 76 180 38 102 125 353 133 387 5 17
21 77 38 135 29 103 40 149 61 240 5 25 14 65 20 90 5 25 12 59 15 75 28 155
46 264 56 340 6 50 16 124 22 165 15 106 14 1007 -1 1130 -31 252 -64 454 -92
580 -6 25 -15 65 -20 90 -21 95 -41 170 -80 300 -17 58 -34 119 -39 135 -20
79 -118 342 -169 457 -12 26 -21 50 -21 52 0 2 -21 48 -46 102 -107 231 -207
421 -290 551 -19 29 -34 55 -34 58 0 10 -274 412 -289 425 -4 3 -35 41 -69 85
-147 187 -254 307 -442 495 -355 355 -710 628 -1150 885 -294 172 -785 388
-1080 475 -41 12 -86 26 -100 30 -69 21 -271 74 -340 89 -30 7 -73 16 -95 21
-85 18 -198 38 -340 59 -61 9 -149 19 -410 47 -112 11 -693 15 -700 4z m820
-309 c128 -13 368 -47 440 -61 28 -6 75 -15 105 -21 296 -57 770 -207 1028
-325 29 -13 55 -24 57 -24 8 0 286 -138 360 -178 405 -223 754 -475 1069 -772
320 -302 556 -581 791 -935 74 -111 135 -205 135 -208 0 -3 19 -36 42 -73 46
-76 210 -397 247 -484 190 -446 300 -812 375 -1255 22 -130 28 -178 56 -437
13 -125 13 -720 0 -846 -25 -233 -32 -291 -41 -352 -15 -100 -49 -278 -65
-350 -31 -133 -56 -236 -64 -260 -4 -14 -16 -52 -25 -85 -46 -163 -162 -485
-222 -615 -66 -145 -197 -406 -238 -474 -25 -42 -45 -79 -45 -82 0 -7 -175
-280 -215 -334 -11 -15 -44 -61 -72 -101 -99 -139 -207 -272 -358 -439 -62
-69 -272 -279 -345 -345 -120 -108 -138 -123 -225 -193 -150 -121 -158 -127
-220 -170 -33 -23 -78 -55 -100 -71 -38 -28 -297 -194 -340 -217 -11 -6 -49
-28 -85 -49 -72 -41 -384 -196 -470 -234 -159 -68 -453 -173 -605 -216 -33 -9
-71 -21 -85 -25 -24 -8 -127 -33 -260 -64 -193 -44 -430 -80 -695 -105 -142
-14 -727 -14 -853 -1 -53 6 -142 16 -197 21 -126 14 -364 54 -475 80 -47 11
-107 25 -135 31 -80 17 -373 104 -450 132 -38 14 -76 26 -83 26 -7 0 -31 8
-55 19 -23 10 -89 38 -147 61 -172 69 -523 237 -565 270 -11 8 -94 55 -138 78
-68 34 -436 288 -549 378 -181 143 -265 218 -442 393 -153 150 -298 308 -399
436 -27 33 -62 77 -79 98 -100 124 -277 389 -391 587 -66 115 -237 450 -237
465 0 2 -11 28 -24 57 -109 238 -238 635 -306 943 -37 168 -46 216 -70 380
-34 243 -42 352 -47 675 -6 364 12 632 63 920 8 47 19 108 24 135 8 50 13 73
31 153 19 85 32 139 61 242 17 58 33 119 38 135 25 96 146 432 161 450 5 5 9
15 9 22 0 7 18 52 40 99 22 47 40 89 40 92 0 7 160 324 170 337 5 6 23 37 41
70 123 227 395 612 592 839 101 115 374 391 481 485 254 222 590 466 829 600
20 11 54 30 75 42 20 12 42 25 47 29 13 10 310 160 317 160 3 0 49 20 101 45
53 25 102 45 110 45 7 0 17 4 23 9 24 21 350 133 564 194 176 49 243 65 465
107 86 17 236 38 345 50 58 6 141 15 185 20 109 11 765 5 900 -9z"/>
<path d="M8898 15466 c-64 -17 -94 -39 -129 -94 -25 -40 -29 -55 -29 -122 0
-186 160 -464 499 -865 107 -126 449 -469 601 -601 154 -135 370 -310 545
-440 91 -67 549 -374 559 -374 3 0 29 -15 58 -33 29 -19 89 -53 133 -77 44
-23 85 -46 90 -50 6 -5 91 -49 190 -98 l180 -90 28 -79 c15 -43 27 -87 27 -98
0 -11 -20 -41 -45 -67 -78 -83 -179 -212 -261 -333 l-79 -117 -10 36 c-14 50
-24 57 -65 46 -55 -16 -93 -44 -115 -86 -44 -87 -75 -124 -104 -124 -33 0 -61
27 -61 60 0 13 17 46 39 74 21 28 46 66 55 83 15 30 15 36 1 70 -21 50 -77
143 -87 143 -4 0 -12 -19 -18 -42 -34 -132 -41 -146 -80 -182 -43 -39 -56 -42
-81 -23 -41 32 -32 62 38 141 44 49 48 65 44 146 -3 47 -39 150 -53 150 -4 0
-15 -12 -25 -27 -9 -16 -41 -59 -71 -96 -49 -60 -59 -68 -86 -65 -23 2 -33 10
-40 30 -12 34 7 65 73 116 138 107 144 211 22 344 -53 58 -71 57 -71 -1 0 -36
-8 -70 -32 -134 -12 -30 -82 -77 -116 -77 -30 0 -63 46 -55 79 8 33 15 43 88
125 86 96 135 180 135 232 0 55 -10 104 -22 104 -5 0 -36 -18 -69 -40 -47 -33
-65 -53 -90 -102 -52 -104 -101 -134 -134 -84 -15 22 -15 28 -1 61 9 20 36 64
62 98 35 47 44 66 39 85 -8 33 -53 97 -109 157 -25 26 -46 58 -46 69 0 35 -12
66 -24 66 -7 0 -22 -17 -34 -39 -20 -35 -22 -53 -22 -186 0 -130 -2 -146 -16
-143 -9 2 -29 19 -44 38 -28 35 -28 36 -20 125 5 50 9 122 9 161 l1 71 -47 44
c-82 75 -196 150 -209 136 -4 -3 1 -24 10 -47 22 -55 20 -88 -8 -151 -41 -95
-42 -113 -5 -172 19 -29 49 -72 67 -96 37 -49 66 -101 59 -107 -2 -2 -24 7
-49 21 -58 32 -146 60 -285 91 -148 32 -150 32 -127 -3 51 -77 86 -142 96
-178 15 -51 34 -68 128 -112 71 -34 82 -36 199 -41 l124 -5 54 -51 c90 -88 69
-99 -59 -31 -64 33 -97 45 -129 45 -24 0 -81 5 -127 12 -45 6 -85 8 -89 5 -3
-4 11 -25 31 -47 20 -23 44 -58 52 -78 72 -169 115 -195 330 -195 111 -1 114
-1 114 -23 0 -14 -12 -31 -32 -46 -28 -20 -44 -23 -110 -22 -74 1 -78 2 -136
46 -61 46 -138 75 -168 64 -32 -12 3 -151 56 -226 l20 -28 193 -4 c163 -3 198
-6 230 -22 43 -21 48 -47 15 -70 -39 -27 -186 -17 -307 20 -58 18 -61 18 -61
-8 1 -53 59 -170 94 -186 64 -30 88 -34 193 -28 59 3 131 8 159 12 39 4 53 2
63 -10 39 -46 -48 -74 -297 -96 -62 -5 -118 -12 -123 -16 -22 -13 37 -79 106
-117 62 -34 199 -29 324 12 110 36 131 38 162 12 23 -19 23 -21 7 -37 -32 -32
-97 -44 -245 -44 -79 0 -143 -4 -143 -9 0 -19 87 -98 132 -119 35 -16 66 -22
117 -22 75 0 122 15 169 55 38 32 143 45 192 25 16 -7 30 -15 30 -19 3 -110
10 -182 21 -206 46 -101 135 -201 206 -232 21 -8 48 -20 60 -26 45 -21 109
-12 163 21 l51 32 62 -57 c34 -32 107 -102 163 -155 56 -54 104 -98 109 -98 9
0 166 122 183 143 26 30 -74 87 -154 87 -30 0 -113 54 -200 130 l-31 26 29 60
c46 98 126 154 218 154 65 0 159 23 228 57 29 14 55 23 58 20 4 -3 -4 -20 -16
-36 -39 -56 -92 -182 -97 -235 -5 -47 -1 -59 54 -166 67 -130 107 -203 134
-242 11 -14 19 -29 19 -33 0 -12 130 -196 209 -295 139 -174 300 -318 432
-385 99 -51 177 -69 289 -69 86 1 118 5 178 27 65 23 249 119 262 137 3 3 22
18 43 32 79 53 251 214 343 321 114 133 204 260 269 380 l47 87 43 0 c26 0 45
-5 48 -12 3 -12 -3 -26 -52 -110 -10 -18 -35 -62 -55 -98 -21 -36 -42 -69 -47
-74 -32 -33 7 -33 176 -1 71 14 132 22 136 17 3 -4 25 -41 48 -84 41 -76 49
-117 32 -160 -17 -44 -55 -217 -49 -224 4 -3 59 20 124 52 l116 58 29 -35 c15
-19 34 -45 41 -59 28 -54 81 -130 92 -130 6 0 28 73 50 163 21 89 42 176 47
192 4 17 12 49 18 73 6 23 15 59 21 80 5 20 21 84 36 142 l26 105 -17 72 c-15
59 -16 75 -5 88 7 8 17 15 22 15 20 0 138 91 165 127 27 35 28 41 27 149 -1
85 -7 128 -25 184 l-23 73 55 51 c55 52 283 263 303 281 7 6 43 39 82 75 367
342 360 337 372 325 4 -4 14 -42 22 -86 15 -77 16 -79 33 -62 16 16 158 237
359 558 100 160 94 147 63 139 -15 -4 -58 -22 -96 -40 -38 -19 -72 -34 -74
-34 -4 0 -54 -22 -183 -81 -35 -16 -65 -29 -67 -29 -2 0 -36 -15 -77 -34 -101
-47 -185 -85 -234 -106 -23 -10 -44 -23 -48 -28 -5 -8 116 -62 141 -62 6 0 17
-7 24 -16 15 -18 24 -9 -215 -224 -77 -69 -167 -150 -200 -181 -34 -30 -83
-75 -111 -100 -27 -24 -72 -65 -100 -91 -76 -71 -105 -92 -105 -76 0 8 48 92
106 188 59 96 114 189 124 205 10 17 55 91 100 165 46 74 106 173 135 220 28
47 78 128 110 180 32 52 72 117 88 144 l31 49 20 -26 c12 -14 33 -46 48 -71
31 -53 44 -57 51 -18 2 15 23 90 46 167 22 77 46 158 52 180 6 22 15 51 19 65
4 14 13 45 20 70 7 25 17 59 21 75 38 130 56 201 52 208 -3 4 -22 -7 -42 -25
-78 -68 -156 -134 -187 -158 -18 -14 -124 -103 -237 -197 -113 -95 -210 -173
-216 -173 -7 0 -11 23 -11 60 0 50 4 63 23 79 12 10 85 69 161 130 127 102
183 149 346 295 30 27 150 145 265 261 487 489 878 1013 974 1305 54 165 4
296 -118 307 -52 5 -96 -4 -266 -57 -38 -12 -83 -25 -100 -30 -16 -5 -70 -21
-120 -35 -49 -15 -103 -30 -120 -35 -16 -5 -61 -18 -100 -30 -38 -12 -83 -25
-100 -30 -16 -5 -70 -21 -120 -35 -49 -15 -103 -30 -120 -35 -16 -5 -61 -18
-100 -30 -38 -12 -85 -26 -102 -31 -61 -17 -98 -28 -188 -54 -49 -15 -103 -30
-120 -35 -16 -5 -61 -18 -100 -30 -38 -12 -83 -25 -100 -30 -55 -15 -239 -70
-290 -87 -32 -10 -109 -19 -210 -24 -88 -4 -178 -12 -200 -17 -125 -28 -281
-139 -381 -272 -41 -54 -91 -168 -104 -238 -24 -120 4 -292 67 -410 19 -35 33
-66 31 -67 -14 -13 -471 -135 -507 -135 -4 0 -6 88 -3 195 7 272 -15 434 -90
659 -30 91 -113 272 -129 282 -5 3 -9 29 -9 59 0 231 -136 441 -338 523 -133
54 -275 50 -400 -10 -62 -30 -204 -150 -248 -210 -12 -16 -48 -45 -80 -64 -75
-45 -99 -68 -132 -124 -59 -99 -67 -170 -27 -219 39 -46 84 -57 137 -33 l44
19 48 -33 c62 -42 66 -48 54 -93 -26 -97 -33 -123 -64 -216 -60 -183 -141
-351 -189 -394 -42 -36 -55 -61 -55 -103 0 -36 34 -138 69 -206 19 -38 20 -43
6 -49 -51 -19 -281 36 -472 114 -103 42 -102 42 -59 113 12 19 28 55 35 80 7
25 18 57 23 72 6 15 11 78 11 140 1 124 -16 191 -74 294 -66 117 -236 265
-350 306 -75 26 -160 38 -280 38 -108 0 -123 3 -284 51 -170 51 -200 60 -265
77 -19 6 -105 31 -190 57 -85 26 -171 51 -190 56 -19 6 -51 15 -70 20 -19 6
-48 14 -65 19 -16 4 -100 29 -185 55 -85 26 -171 51 -190 56 -69 19 -97 28
-250 74 -85 26 -171 51 -190 56 -42 12 -94 27 -135 39 -230 67 -217 65 -287
46z m4202 -244 c41 -12 68 -29 106 -67 70 -69 94 -136 94 -256 0 -90 0 -91 43
-157 24 -37 53 -89 66 -117 35 -74 87 -240 100 -320 7 -38 17 -94 22 -124 13
-76 11 -321 -3 -397 -12 -69 -16 -72 -72 -55 -17 5 -51 15 -76 22 -80 21 -163
51 -240 87 -74 34 -138 43 -163 24 -7 -5 -21 -12 -32 -15 -11 -3 -58 -18 -105
-35 -128 -44 -175 -56 -207 -53 -14 1 -80 110 -89 147 -5 18 3 38 29 78 29 44
108 201 137 271 61 150 126 379 145 512 10 62 -15 107 -73 133 -114 52 -129
69 -90 99 14 11 33 39 42 61 9 22 21 40 28 40 15 0 68 50 68 65 0 14 70 54
124 71 44 13 60 12 146 -14z m-3900 -47 c153 -46 181 -55 250 -74 19 -5 105
-30 190 -56 85 -26 169 -51 185 -55 17 -5 62 -18 100 -30 39 -12 84 -25 100
-30 47 -13 189 -55 305 -90 58 -17 120 -36 138 -41 17 -5 47 -13 65 -18 51
-15 193 -57 307 -91 58 -17 121 -36 140 -42 19 -5 109 -13 200 -18 91 -4 181
-14 200 -21 98 -35 217 -147 264 -250 46 -97 30 -274 -31 -341 -10 -11 -45
-32 -78 -47 -123 -56 -179 -131 -178 -241 0 -105 53 -198 143 -248 24 -13 34
-25 31 -38 -9 -49 -12 -445 -2 -478 13 -51 -2 -54 -70 -18 -30 16 -92 50 -139
74 -105 55 -167 90 -245 138 -34 20 -68 39 -76 42 -58 22 -557 374 -715 504
-220 180 -569 512 -691 657 -29 34 -63 73 -75 87 -13 14 -41 47 -63 75 -22 27
-46 57 -54 65 -23 23 -181 237 -253 340 -75 109 -168 268 -168 288 0 20 38 13
220 -43z m7778 -38 c-83 -170 -310 -494 -494 -703 -11 -12 -41 -48 -69 -80
-160 -188 -516 -544 -709 -709 -33 -27 -64 -55 -70 -60 -6 -6 -33 -28 -61 -50
-27 -22 -56 -46 -64 -53 -21 -20 -262 -199 -356 -264 -71 -49 -292 -188 -299
-188 -2 0 -46 -24 -97 -53 -126 -71 -209 -109 -225 -103 -13 5 -12 21 7 170 6
43 9 156 8 250 l-3 171 28 14 c43 20 99 82 124 134 31 66 31 169 0 228 -26 48
-100 108 -172 139 -69 29 -85 53 -112 160 -33 135 1 235 121 355 110 110 180
135 379 135 112 0 112 0 324 61 17 5 47 13 65 18 71 21 138 41 272 81 77 23
156 46 175 52 56 15 86 24 250 73 85 26 170 51 188 56 17 5 47 13 65 18 17 5
102 30 187 56 85 26 171 51 190 56 19 6 50 14 68 20 17 5 47 13 65 18 17 5 77
23 132 39 55 17 103 28 107 26 3 -2 -7 -32 -24 -67z m-3871 -1548 c79 -32 114
-44 168 -59 252 -70 353 -74 601 -24 109 21 148 31 274 65 106 30 114 31 126
14 13 -18 23 -106 27 -250 l2 -90 -1268 -3 c-1009 -2 -1269 0 -1272 10 -7 19
13 232 31 316 5 23 41 31 59 13 29 -28 284 -98 405 -111 106 -12 327 13 450
50 14 4 45 13 70 20 25 7 54 16 65 20 38 14 170 58 177 59 4 1 42 -13 85 -30z
m2117 -745 c-70 -109 -147 -230 -171 -267 -25 -38 -42 -72 -39 -75 4 -3 39 -1
79 5 39 5 77 8 83 6 13 -5 13 -6 -32 -168 -48 -173 -63 -231 -83 -311 -23 -90
-47 -142 -105 -232 -70 -107 -78 -103 -157 73 -68 154 -193 343 -321 487 -66
74 -69 79 -62 115 4 21 10 43 14 48 4 6 9 18 11 28 3 12 38 32 104 61 130 56
322 152 405 202 37 22 73 43 80 46 8 4 80 49 160 102 80 52 149 91 153 87 4
-4 -49 -98 -119 -207z m463 152 c7 -7 -24 -66 -77 -146 -20 -30 -58 -91 -85
-135 -26 -44 -57 -89 -68 -99 -20 -20 -20 -20 -14 40 4 32 10 126 13 208 l7
149 109 -5 c60 -3 112 -8 115 -12z m-3699 -356 c1 -168 0 -312 -4 -320 -3 -10
-15 5 -34 45 -100 209 -134 312 -159 487 -5 31 -12 61 -16 68 -14 22 19 30
115 28 l95 -3 3 -305z m456 304 c14 -6 16 -69 16 -620 0 -412 -3 -614 -10
-614 -16 0 -96 77 -166 161 l-64 77 0 494 c0 272 3 498 7 501 8 9 196 9 217 1z
m474 -764 c1 -421 0 -771 -3 -777 -5 -14 -35 1 -160 76 l-60 36 -3 710 c-2
560 0 710 10 717 7 4 58 7 113 6 l100 -3 3 -765z m470 61 c2 -645 1 -706 -14
-723 -10 -10 -21 -18 -25 -18 -5 0 -39 -20 -77 -44 -38 -25 -81 -48 -95 -51
l-27 -7 0 770 c0 725 1 771 18 775 9 3 62 4 117 4 l100 -2 3 -704z m450 703
l22 -6 0 -487 0 -487 -57 -70 c-63 -76 -161 -174 -174 -174 -10 0 -12 1213 -2
1223 8 9 180 9 211 1z m430 -3 c14 -9 8 -68 -18 -181 -6 -25 -15 -63 -20 -85
-19 -92 -116 -325 -141 -341 -5 -3 -9 124 -9 300 0 282 1 305 18 309 31 8 157
7 170 -2z m1071 -489 c7 -14 4 -29 -15 -60 -38 -64 -56 -53 -33 19 6 19 12 40
15 47 5 18 22 15 33 -6z m-907 -407 c69 -99 97 -147 149 -255 39 -83 47 -100
66 -150 26 -68 59 -123 80 -133 13 -5 23 -18 23 -29 0 -15 -8 -18 -44 -18 -40
0 -48 4 -72 38 -55 74 -139 147 -209 182 -59 28 -85 35 -165 40 -52 4 -104 11
-115 15 -35 15 -95 57 -95 67 0 9 55 91 106 156 23 30 114 180 114 188 0 2 8
16 17 30 l17 26 36 -39 c20 -21 61 -74 92 -118z m-2631 88 c18 -32 39 -69 46
-82 14 -26 87 -129 140 -199 18 -24 33 -49 33 -57 0 -15 -86 -82 -150 -117
-65 -35 -118 -48 -195 -48 -58 0 -79 -5 -141 -36 -40 -20 -97 -58 -126 -85
-53 -49 -53 -49 -118 -46 -53 2 -65 5 -68 20 -3 13 3 17 28 17 47 0 87 28 110
77 11 24 20 47 20 53 0 11 64 139 106 210 25 42 112 169 124 180 3 3 18 23 35
45 39 53 106 125 115 125 5 0 23 -26 41 -57z m2324 -633 c43 -11 103 -20 134
-20 48 0 63 -6 103 -35 26 -19 59 -55 73 -80 26 -43 26 -46 10 -71 -9 -14 -64
-61 -123 -105 l-107 -79 -6 68 c-7 70 -49 178 -92 236 -13 17 -36 48 -51 69
-16 20 -26 37 -24 37 3 0 40 -9 83 -20z m-1743 -47 c6 -16 165 -128 263 -188
56 -34 155 -87 221 -119 65 -31 127 -61 136 -66 30 -17 46 -12 199 64 144 72
325 184 441 272 31 24 67 44 79 44 48 0 159 -107 233 -224 44 -69 14 -164
-102 -331 -157 -226 -367 -439 -552 -557 -122 -78 -177 -98 -269 -98 -80 0
-116 10 -191 48 -209 109 -472 433 -685 845 l-30 57 28 54 c36 68 87 129 146
172 44 32 76 42 83 27z"/>
<path d="M8175 13601 c-3 -5 1 -15 7 -23 78 -82 99 -114 123 -197 38 -125 43
-140 64 -206 10 -33 28 -91 39 -130 17 -59 40 -135 103 -340 5 -16 22 -73 38
-125 16 -52 41 -133 55 -180 14 -47 30 -98 35 -115 5 -16 24 -77 41 -133 l32
-104 -31 -50 c-17 -27 -31 -52 -31 -55 0 -3 -10 -18 -21 -35 -18 -25 -19 -32
-8 -39 18 -11 440 -11 458 0 11 7 3 26 -38 94 l-52 86 36 113 c20 62 40 124
44 138 5 14 19 59 31 100 13 41 33 107 45 145 13 39 33 104 45 145 12 41 30
100 40 130 19 59 68 219 121 390 83 270 81 267 142 335 20 22 37 46 37 53 0 9
-57 12 -250 12 -137 0 -250 -3 -250 -7 0 -4 18 -35 41 -69 44 -69 44 -65 10
-184 -5 -19 -19 -69 -30 -110 -28 -106 -79 -296 -123 -450 -5 -19 -13 -51 -18
-70 -40 -170 -71 -248 -84 -209 -2 8 -6 28 -9 44 -2 17 -26 122 -52 235 -47
203 -52 224 -75 330 -7 30 -16 71 -20 90 -54 234 -56 255 -35 315 30 88 38 85
-224 85 -129 0 -232 -4 -236 -9z"/>
<path d="M16900 13603 c0 -3 27 -34 60 -69 l60 -62 0 -732 0 -731 -52 -57
c-29 -31 -57 -60 -63 -64 -29 -22 40 -28 327 -28 193 0 309 4 313 10 3 5 -24
39 -61 74 l-67 64 6 228 c4 125 7 458 7 739 0 507 0 512 21 536 34 39 69 85
69 92 0 4 -139 7 -310 7 -170 0 -310 -3 -310 -7z"/>
</g>
</svg>
