<?xml version="1.0" standalone="no"?>
<!DOCTYPE svg PUBLIC "-//W3C//DTD SVG 20010904//EN"
 "http://www.w3.org/TR/2001/REC-SVG-20010904/DTD/svg10.dtd">
<svg version="1.0" xmlns="http://www.w3.org/2000/svg"
 width="1200.000000pt" height="1200.000000pt" viewBox="0 0 1200.000000 1200.000000"
 preserveAspectRatio="xMidYMid meet">

<g transform="translate(0.000000,1200.000000) scale(0.100000,-0.100000)"
fill="#000000" stroke="none">
<path d="M5799 7646 c-476 -69 -824 -326 -868 -642 -13 -90 3 -193 44 -282
108 -233 361 -405 709 -480 106 -23 144 -26 306 -26 211 0 313 15 477 69 244
81 436 219 532 383 52 88 73 164 72 265 -1 240 -157 446 -446 587 -187 91
-346 128 -585 135 -93 3 -179 -1 -241 -9z m451 -51 c118 -20 215 -49 317 -93
405 -175 564 -495 400 -807 -40 -75 -149 -186 -244 -249 -200 -131 -515 -208
-790 -192 -550 31 -963 320 -963 674 0 219 137 409 390 541 255 133 578 178
890 126z"/>
<path d="M5410 7315 c-43 -52 159 -267 353 -375 32 -18 61 -39 64 -46 6 -17
-45 -80 -62 -76 -7 1 -15 -4 -19 -13 -9 -26 -26 -17 -22 13 2 15 1 22 -1 15
-4 -12 -33 -27 -33 -17 0 3 5 14 11 26 13 25 5 35 -16 18 -18 -15 -19 -7 -3
19 6 10 8 27 4 37 -8 18 -9 18 -17 -3 -4 -13 -13 -23 -19 -23 -15 0 -12 26 5
40 8 7 15 20 15 29 -1 14 -2 14 -14 -1 -7 -10 -19 -18 -26 -18 -10 0 -10 3 -1
14 10 12 9 21 -3 43 l-15 28 -1 -27 c0 -16 -5 -28 -11 -28 -6 0 -9 10 -8 23 4
25 -7 47 -23 47 -6 0 -8 -15 -6 -35 4 -35 3 -36 -25 -29 -27 6 -28 5 -18 -15
7 -12 16 -21 22 -21 6 0 8 -4 5 -8 -10 -17 25 -52 52 -52 20 0 23 -3 13 -9 -9
-6 -22 -6 -34 1 -21 11 -33 5 -22 -11 3 -6 19 -11 35 -11 16 0 32 -4 35 -10 4
-6 -7 -10 -26 -10 -28 0 -30 -2 -18 -16 8 -10 23 -14 40 -12 16 3 26 1 23 -4
-3 -4 -16 -8 -30 -8 -30 0 -30 -6 -1 -31 16 -14 32 -17 57 -14 32 5 36 2 50
-27 11 -25 22 -34 45 -36 17 -2 39 -12 51 -23 19 -18 22 -18 34 -4 10 12 10
15 -1 15 -8 0 -22 7 -31 14 -22 16 -6 41 33 50 23 5 25 3 22 -22 -5 -32 59
-138 100 -165 60 -39 140 -6 201 81 31 46 41 52 31 23 -4 -15 0 -20 17 -23 19
-2 23 -9 22 -35 -2 -28 1 -31 15 -24 11 7 21 5 32 -5 15 -13 17 -8 29 48 7 35
20 71 28 80 8 10 12 27 8 41 -4 19 5 33 48 76 30 30 60 51 68 49 8 -3 24 12
40 38 31 50 26 53 -37 22 -30 -15 -41 -25 -32 -30 8 -5 -3 -21 -38 -52 -27
-24 -51 -43 -53 -41 -8 7 93 155 103 151 10 -4 41 81 32 90 -9 9 -76 -58 -71
-71 3 -8 -1 -24 -10 -37 -16 -22 -16 -22 -16 17 0 37 6 45 85 118 82 75 166
180 179 222 14 49 -4 49 -167 1 -85 -25 -169 -46 -187 -46 -23 0 -42 -10 -66
-34 -36 -36 -40 -50 -25 -90 9 -22 7 -26 -21 -35 -45 -16 -48 -15 -48 27 0 52
-38 172 -63 200 -28 30 -56 28 -105 -10 -46 -35 -54 -63 -21 -71 23 -6 21 -23
-10 -89 -12 -24 -15 -42 -9 -52 11 -19 -5 -21 -50 -5 -28 9 -30 13 -22 35 20
51 -34 124 -90 124 -15 0 -94 20 -178 45 -83 25 -155 45 -160 45 -5 0 -15 -7
-22 -15z m676 -100 c27 -77 29 -143 4 -136 -8 3 -40 5 -70 6 -62 1 -62 -1 -31
85 18 49 18 57 4 72 -13 15 -13 18 6 37 34 34 58 16 87 -64z m-499 35 c75 -22
147 -40 160 -40 27 0 64 -17 75 -34 14 -20 8 -53 -12 -71 -21 -19 -26 -50 -10
-60 12 -7 14 -85 2 -85 -15 0 -130 74 -189 120 -77 61 -195 210 -167 210 3 0
67 -18 141 -40z m1022 18 c-24 -46 -111 -148 -167 -196 -68 -58 -160 -122
-176 -122 -13 0 -9 79 5 95 15 15 10 43 -10 57 -49 34 -14 107 52 109 17 0 88
18 157 39 153 47 154 47 139 18z m-507 -229 c18 -1 52 1 76 6 41 7 42 7 42
-19 l0 -26 -185 0 -185 0 0 26 c0 22 3 24 23 18 29 -10 124 -7 145 5 10 6 23
6 33 0 10 -5 32 -10 51 -10z m268 -75 c0 -3 -10 -19 -21 -36 -15 -21 -18 -32
-10 -37 8 -5 7 -21 -4 -59 -9 -29 -19 -52 -24 -52 -14 0 -72 102 -67 116 3 8
26 23 51 35 25 12 48 25 51 30 6 10 24 12 24 3z m-490 -46 c0 -47 -14 -42 -25
10 -5 25 -3 32 9 32 12 0 16 -10 16 -42z m70 -48 c0 -49 -3 -90 -6 -90 -20 0
-33 42 -34 101 0 68 4 79 27 79 10 0 13 -22 13 -90z m70 -25 c0 -63 -4 -115
-8 -115 -24 0 -32 30 -32 127 0 96 1 103 20 103 19 0 20 -7 20 -115z m68 8 c2
-94 1 -103 -18 -113 -20 -10 -20 -8 -20 105 0 106 2 116 18 113 15 -3 17 -17
20 -105z m70 36 c2 -54 -1 -70 -17 -90 l-20 -24 -1 93 c0 84 2 93 18 90 14 -3
18 -16 20 -69z m52 44 c0 -16 -5 -35 -10 -43 -7 -11 -10 -4 -10 28 0 23 5 42
10 42 6 0 10 -12 10 -27z m-610 -12 c0 -5 -9 -7 -20 -4 -11 3 -20 7 -20 9 0 2
9 4 20 4 11 0 20 -4 20 -9z m661 -134 c19 -37 18 -70 -2 -35 -5 9 -23 19 -39
23 -34 8 -37 16 -13 51 18 28 19 27 54 -39z m-396 26 c17 -25 17 -27 -1 -40
-10 -7 -26 -13 -35 -13 -10 0 -21 -4 -24 -10 -3 -5 -14 -10 -23 -9 -11 0 -12
3 -4 6 6 2 12 9 12 14 0 12 43 79 51 79 4 0 15 -12 24 -27z m-202 -50 c-7 -2
-21 -2 -30 0 -10 3 -4 5 12 5 17 0 24 -2 18 -5z m573 -35 c4 -6 -1 -17 -9 -25
-14 -14 -17 -12 -31 14 -15 30 -15 30 10 25 13 -2 27 -9 30 -14z m-214 -44
c13 -4 36 4 69 25 43 27 50 28 64 15 26 -26 17 -53 -38 -109 -38 -40 -61 -55
-80 -55 -32 0 -94 53 -121 104 -18 34 -18 37 -2 55 17 19 18 19 53 -4 19 -13
44 -27 55 -31z"/>
<path d="M5358 6948 c18 -57 34 -113 34 -125 0 -18 6 -23 28 -23 23 0 27 4 23
23 -2 12 11 68 30 125 l33 102 -26 0 c-25 0 -28 -4 -34 -47 -4 -27 -13 -61
-20 -78 -13 -30 -13 -30 -31 48 -16 73 -19 77 -44 77 l-27 0 34 -102z"/>
<path d="M6615 6925 l0 -125 35 0 35 0 0 125 0 125 -35 0 -35 0 0 -125z"/>
<path d="M7400 5975 l0 -95 1425 0 1425 0 0 95 0 95 -1425 0 -1425 0 0 -95z"/>
<path d="M1750 5955 l0 -95 1425 0 1425 0 0 95 0 95 -1425 0 -1425 0 0 -95z"/>
<path d="M5960 5371 l-25 -7 -3 -511 c-2 -483 -2 -512 15 -517 22 -7 110 -2
119 7 4 3 9 233 12 510 4 419 2 506 -9 513 -18 11 -78 14 -109 5z"/>
<path d="M5355 5350 c-3 -11 -3 -25 0 -31 4 -6 13 -56 21 -112 7 -56 29 -210
49 -342 20 -132 44 -300 55 -374 10 -73 24 -139 30 -145 11 -11 119 -11 172 0
32 7 40 36 64 246 8 79 22 166 29 193 13 48 58 372 71 506 6 63 5 66 -17 72
-38 10 -107 8 -114 -3 -4 -6 -9 -37 -11 -68 -4 -57 -29 -282 -39 -357 -3 -22
-15 -112 -27 -200 -11 -88 -24 -169 -29 -180 l-8 -20 -2 20 c-1 11 -3 40 -5
65 -1 25 -17 146 -34 270 -18 124 -36 254 -41 290 -4 36 -13 93 -20 128 l-11
62 -63 0 c-55 0 -65 -3 -70 -20z"/>
<path d="M6201 5356 c-17 -20 -15 -987 2 -1011 10 -12 26 -15 72 -13 l60 3 0
213 c0 138 4 212 10 212 6 0 39 -82 74 -182 92 -262 84 -248 141 -248 27 0 60
4 74 10 25 9 25 10 12 54 -8 25 -44 122 -82 216 l-68 170 41 35 c65 55 83 111
83 257 1 171 -19 229 -93 273 -41 23 -52 25 -179 25 -104 0 -138 -3 -147 -14z
m255 -147 c16 -18 20 -40 22 -140 3 -96 1 -122 -11 -134 -35 -35 -120 -47
-131 -19 -3 9 -6 83 -6 165 l0 149 53 0 c42 0 58 -5 73 -21z"/>
</g>
</svg>
